{
	"asset":{
		"generator":"Khronos glTF Blender I/O v4.2.60",
		"version":"2.0"
	},
	"scene":0,
	"scenes":[
		{
			"name":"Scene",
			"nodes":[
				4
			]
		}
	],
	"nodes":[
		{
			"mesh":0,
			"name":"Mancuerna",
			"rotation":[
				0,
				0,
				-0.3546682298183441,
				0.934992253780365
			],
			"scale":[
				0.25767314434051514,
				0.24758607149124146,
				2.377384901046753
			],
			"translation":[
				-0.06514600664377213,
				5.109069347381592,
				-0.10671085864305496
			]
		},
		{
			"mesh":1,
			"name":"Mancuerna.001",
			"rotation":[
				0,
				0,
				-0.40500175952911377,
				0.914315938949585
			],
			"scale":[
				0.2852330505847931,
				0.2970897853374481,
				2.377384901046753
			],
			"translation":[
				-3.941004514694214,
				5.2248616218566895,
				0.1299738883972168
			]
		},
		{
			"mesh":2,
			"name":"Mancuerna.002",
			"rotation":[
				0,
				0,
				-0.40466517210006714,
				0.9144650101661682
			],
			"scale":[
				0.2853133976459503,
				0.29701265692710876,
				2.377384901046753
			],
			"translation":[
				4.089313507080078,
				5.231353282928467,
				-0.17188698053359985
			]
		},
		{
			"mesh":3,
			"name":"Mancuerna.003",
			"rotation":[
				0,
				0,
				-0.350096732378006,
				0.9367135763168335
			],
			"scale":[
				0.24884603917598724,
				0.23738479614257812,
				2.377384901046753
			],
			"translation":[
				1.9305344820022583,
				5.08959436416626,
				0.2583785653114319
			]
		},
		{
			"children":[
				0,
				1,
				2,
				3
			],
			"mesh":4,
			"name":"Estand",
			"scale":[
				0.6975370645523071,
				1,
				0.9266152381896973
			]
		}
	],
	"meshes":[
		{
			"name":"Cubo.001",
			"primitives":[
				{
					"attributes":{
						"POSITION":0,
						"NORMAL":1,
						"TEXCOORD_0":2
					},
					"indices":3
				}
			]
		},
		{
			"name":"Cubo.002",
			"primitives":[
				{
					"attributes":{
						"POSITION":4,
						"NORMAL":5,
						"TEXCOORD_0":6
					},
					"indices":3
				}
			]
		},
		{
			"name":"Cubo.004",
			"primitives":[
				{
					"attributes":{
						"POSITION":7,
						"NORMAL":8,
						"TEXCOORD_0":9
					},
					"indices":3
				}
			]
		},
		{
			"name":"Cubo.003",
			"primitives":[
				{
					"attributes":{
						"POSITION":10,
						"NORMAL":11,
						"TEXCOORD_0":12
					},
					"indices":3
				}
			]
		},
		{
			"name":"Estand",
			"primitives":[
				{
					"attributes":{
						"POSITION":13,
						"NORMAL":14,
						"TEXCOORD_0":15
					},
					"indices":16
				}
			]
		}
	],
	"accessors":[
		{
			"bufferView":0,
			"componentType":5126,
			"count":80,
			"max":[
				2.4395322799682617,
				2.4395322799682617,
				0.6486905813217163
			],
			"min":[
				-2.4395322799682617,
				-2.4395322799682617,
				-0.6486905813217163
			],
			"type":"VEC3"
		},
		{
			"bufferView":1,
			"componentType":5126,
			"count":80,
			"type":"VEC3"
		},
		{
			"bufferView":2,
			"componentType":5126,
			"count":80,
			"type":"VEC2"
		},
		{
			"bufferView":3,
			"componentType":5123,
			"count":132,
			"type":"SCALAR"
		},
		{
			"bufferView":4,
			"componentType":5126,
			"count":80,
			"max":[
				2.4395322799682617,
				2.4395322799682617,
				0.6486905813217163
			],
			"min":[
				-2.4395322799682617,
				-2.4395322799682617,
				-0.6486905813217163
			],
			"type":"VEC3"
		},
		{
			"bufferView":5,
			"componentType":5126,
			"count":80,
			"type":"VEC3"
		},
		{
			"bufferView":6,
			"componentType":5126,
			"count":80,
			"type":"VEC2"
		},
		{
			"bufferView":7,
			"componentType":5126,
			"count":80,
			"max":[
				2.4395322799682617,
				2.4395322799682617,
				0.6486905813217163
			],
			"min":[
				-2.4395322799682617,
				-2.4395322799682617,
				-0.6486905813217163
			],
			"type":"VEC3"
		},
		{
			"bufferView":8,
			"componentType":5126,
			"count":80,
			"type":"VEC3"
		},
		{
			"bufferView":9,
			"componentType":5126,
			"count":80,
			"type":"VEC2"
		},
		{
			"bufferView":10,
			"componentType":5126,
			"count":80,
			"max":[
				2.4395322799682617,
				2.4395322799682617,
				0.6486905813217163
			],
			"min":[
				-2.4395322799682617,
				-2.4395322799682617,
				-0.6486905813217163
			],
			"type":"VEC3"
		},
		{
			"bufferView":11,
			"componentType":5126,
			"count":80,
			"type":"VEC3"
		},
		{
			"bufferView":12,
			"componentType":5126,
			"count":80,
			"type":"VEC2"
		},
		{
			"bufferView":13,
			"componentType":5126,
			"count":114,
			"max":[
				5,
				5,
				2.0559802055358887
			],
			"min":[
				-5,
				0,
				-2.0559802055358887
			],
			"type":"VEC3"
		},
		{
			"bufferView":14,
			"componentType":5126,
			"count":114,
			"type":"VEC3"
		},
		{
			"bufferView":15,
			"componentType":5126,
			"count":114,
			"type":"VEC2"
		},
		{
			"bufferView":16,
			"componentType":5123,
			"count":252,
			"type":"SCALAR"
		}
	],
	"bufferViews":[
		{
			"buffer":0,
			"byteLength":960,
			"byteOffset":0,
			"target":34962
		},
		{
			"buffer":0,
			"byteLength":960,
			"byteOffset":960,
			"target":34962
		},
		{
			"buffer":0,
			"byteLength":640,
			"byteOffset":1920,
			"target":34962
		},
		{
			"buffer":0,
			"byteLength":264,
			"byteOffset":2560,
			"target":34963
		},
		{
			"buffer":0,
			"byteLength":960,
			"byteOffset":2824,
			"target":34962
		},
		{
			"buffer":0,
			"byteLength":960,
			"byteOffset":3784,
			"target":34962
		},
		{
			"buffer":0,
			"byteLength":640,
			"byteOffset":4744,
			"target":34962
		},
		{
			"buffer":0,
			"byteLength":960,
			"byteOffset":5384,
			"target":34962
		},
		{
			"buffer":0,
			"byteLength":960,
			"byteOffset":6344,
			"target":34962
		},
		{
			"buffer":0,
			"byteLength":640,
			"byteOffset":7304,
			"target":34962
		},
		{
			"buffer":0,
			"byteLength":960,
			"byteOffset":7944,
			"target":34962
		},
		{
			"buffer":0,
			"byteLength":960,
			"byteOffset":8904,
			"target":34962
		},
		{
			"buffer":0,
			"byteLength":640,
			"byteOffset":9864,
			"target":34962
		},
		{
			"buffer":0,
			"byteLength":1368,
			"byteOffset":10504,
			"target":34962
		},
		{
			"buffer":0,
			"byteLength":1368,
			"byteOffset":11872,
			"target":34962
		},
		{
			"buffer":0,
			"byteLength":912,
			"byteOffset":13240,
			"target":34962
		},
		{
			"buffer":0,
			"byteLength":504,
			"byteOffset":14152,
			"target":34963
		}
	],
	"buffers":[
		{
			"byteLength":14656,
			"uri":"Mancuernas.bin"
		}
	]
}
