{
	"asset":{
		"generator":"Khronos glTF Blender I/O v4.2.60",
		"version":"2.0"
	},
	"scene":0,
	"scenes":[
		{
			"name":"Scene",
			"nodes":[
				0
			]
		}
	],
	"nodes":[
		{
			"mesh":0,
			"name":"Arm_Machine",
			"scale":[
				0.30319204926490784,
				14.58734130859375,
				0.30319204926490784
			],
			"translation":[
				0.49950891733169556,
				4.765623569488525,
				-3.71952223777771
			]
		}
	],
	"meshes":[
		{
			"name":"Arm_Machine",
			"primitives":[
				{
					"attributes":{
						"POSITION":0,
						"NORMAL":1,
						"TEXCOORD_0":2
					},
					"indices":3
				}
			]
		}
	],
	"accessors":[
		{
			"bufferView":0,
			"componentType":5126,
			"count":602,
			"max":[
				8.197000503540039,
				0.2609867751598358,
				25.022010803222656
			],
			"min":[
				-12.28226089477539,
				-0.3379109501838684,
				-2.9066295623779297
			],
			"type":"VEC3"
		},
		{
			"bufferView":1,
			"componentType":5126,
			"count":602,
			"type":"VEC3"
		},
		{
			"bufferView":2,
			"componentType":5126,
			"count":602,
			"type":"VEC2"
		},
		{
			"bufferView":3,
			"componentType":5123,
			"count":1224,
			"type":"SCALAR"
		}
	],
	"bufferViews":[
		{
			"buffer":0,
			"byteLength":7224,
			"byteOffset":0,
			"target":34962
		},
		{
			"buffer":0,
			"byteLength":7224,
			"byteOffset":7224,
			"target":34962
		},
		{
			"buffer":0,
			"byteLength":4816,
			"byteOffset":14448,
			"target":34962
		},
		{
			"buffer":0,
			"byteLength":2448,
			"byteOffset":19264,
			"target":34963
		}
	],
	"buffers":[
		{
			"byteLength":21712,
			"uri":"Arm_Machine.bin"
		}
	]
}
