{
	"asset":{
		"generator":"Khronos glTF Blender I/O v4.2.60",
		"version":"2.0"
	},
	"scene":0,
	"scenes":[
		{
			"name":"Scene",
			"nodes":[
				0
			]
		}
	],
	"nodes":[
		{
			"mesh":0,
			"name":"Booty_Machine",
			"scale":[
				0.47450658679008484,
				22.829721450805664,
				0.47450658679008484
			],
			"translation":[
				-0.11758184432983398,
				0,
				0
			]
		}
	],
	"meshes":[
		{
			"name":"Booty_Machine",
			"primitives":[
				{
					"attributes":{
						"POSITION":0,
						"NORMAL":1,
						"TEXCOORD_0":2
					},
					"indices":3
				}
			]
		}
	],
	"accessors":[
		{
			"bufferView":0,
			"componentType":5126,
			"count":655,
			"max":[
				9.5550537109375,
				0.3489936888217926,
				10.211148262023926
			],
			"min":[
				-9.62164306640625,
				-0.0003452897071838379,
				-1.978405237197876
			],
			"type":"VEC3"
		},
		{
			"bufferView":1,
			"componentType":5126,
			"count":655,
			"type":"VEC3"
		},
		{
			"bufferView":2,
			"componentType":5126,
			"count":655,
			"type":"VEC2"
		},
		{
			"bufferView":3,
			"componentType":5123,
			"count":1236,
			"type":"SCALAR"
		}
	],
	"bufferViews":[
		{
			"buffer":0,
			"byteLength":7860,
			"byteOffset":0,
			"target":34962
		},
		{
			"buffer":0,
			"byteLength":7860,
			"byteOffset":7860,
			"target":34962
		},
		{
			"buffer":0,
			"byteLength":5240,
			"byteOffset":15720,
			"target":34962
		},
		{
			"buffer":0,
			"byteLength":2472,
			"byteOffset":20960,
			"target":34963
		}
	],
	"buffers":[
		{
			"byteLength":23432,
			"uri":"Booty_Machine.bin"
		}
	]
}
