{
	"asset":{
		"generator":"Khronos glTF Blender I/O v4.2.60",
		"version":"2.0"
	},
	"scene":0,
	"scenes":[
		{
			"name":"Scene",
			"nodes":[
				0
			]
		}
	],
	"nodes":[
		{
			"mesh":0,
			"name":"Head_Machine",
			"scale":[
				0.30319204926490784,
				14.58734130859375,
				0.30319204926490784
			],
			"translation":[
				0.49950891733169556,
				4.765623569488525,
				-3.71952223777771
			]
		}
	],
	"meshes":[
		{
			"name":"Head_Machine",
			"primitives":[
				{
					"attributes":{
						"POSITION":0,
						"NORMAL":1,
						"TEXCOORD_0":2
					},
					"indices":3
				}
			]
		}
	],
	"accessors":[
		{
			"bufferView":0,
			"componentType":5126,
			"count":415,
			"max":[
				3.162471294403076,
				0.2609749138355255,
				10.17033576965332
			],
			"min":[
				-7.233097553253174,
				-0.3379109501838684,
				-2.9066295623779297
			],
			"type":"VEC3"
		},
		{
			"bufferView":1,
			"componentType":5126,
			"count":415,
			"type":"VEC3"
		},
		{
			"bufferView":2,
			"componentType":5126,
			"count":415,
			"type":"VEC2"
		},
		{
			"bufferView":3,
			"componentType":5123,
			"count":792,
			"type":"SCALAR"
		}
	],
	"bufferViews":[
		{
			"buffer":0,
			"byteLength":4980,
			"byteOffset":0,
			"target":34962
		},
		{
			"buffer":0,
			"byteLength":4980,
			"byteOffset":4980,
			"target":34962
		},
		{
			"buffer":0,
			"byteLength":3320,
			"byteOffset":9960,
			"target":34962
		},
		{
			"buffer":0,
			"byteLength":1584,
			"byteOffset":13280,
			"target":34963
		}
	],
	"buffers":[
		{
			"byteLength":14864,
			"uri":"Head_Machine.bin"
		}
	]
}
