{
	"asset":{
		"generator":"Khronos glTF Blender I/O v4.2.60",
		"version":"2.0"
	},
	"scene":0,
	"scenes":[
		{
			"name":"Scene",
			"nodes":[
				6
			]
		}
	],
	"nodes":[
		{
			"mesh":0,
			"name":"Arm_R_Mamadissim.001",
			"rotation":[
				-0.7071068286895752,
				0.7071068286895752,
				0,
				5.338509012631221e-08
			],
			"translation":[
				1.2556371688842773,
				1.594001293182373,
				0
			]
		},
		{
			"mesh":1,
			"name":"Arm_R_Mamadissim.002",
			"rotation":[
				0,
				0,
				0.7071068286895752,
				0.7071068286895752
			],
			"scale":[
				-1,
				-1,
				-1
			],
			"translation":[
				-1.2552461624145508,
				1.594001293182373,
				0
			]
		},
		{
			"mesh":2,
			"name":"Booty_Mamadissim.001"
		},
		{
			"mesh":3,
			"name":"Head_Mamadissim.001",
			"scale":[
				0.7416545152664185,
				0.8417667746543884,
				0.7601324915885925
			],
			"translation":[
				-0.0051422119140625,
				2.789768695831299,
				0
			]
		},
		{
			"mesh":4,
			"name":"Leg_L_Mamadissim.001",
			"rotation":[
				1,
				0,
				0,
				0
			],
			"scale":[
				-1,
				-1,
				-1
			],
			"translation":[
				-0.6411409378051758,
				-1.6906085014343262,
				0
			]
		},
		{
			"mesh":5,
			"name":"Leg_R_Mamadissim.001",
			"translation":[
				0.6624164581298828,
				-1.6906085014343262,
				0
			]
		},
		{
			"children":[
				0,
				1,
				2,
				3,
				4,
				5
			],
			"mesh":6,
			"name":"Body_Mamadissim.001",
			"translation":[
				10.005142211914062,
				5.228597164154053,
				0
			]
		}
	],
	"materials":[
		{
			"doubleSided":true,
			"name":"Material",
			"pbrMetallicRoughness":{
				"baseColorFactor":[
					0.800000011920929,
					0.800000011920929,
					0.800000011920929,
					1
				],
				"metallicFactor":0,
				"roughnessFactor":0.5
			}
		}
	],
	"meshes":[
		{
			"name":"Arm_R_Mamadissim.001",
			"primitives":[
				{
					"attributes":{
						"POSITION":0,
						"NORMAL":1,
						"TEXCOORD_0":2
					},
					"indices":3
				}
			]
		},
		{
			"name":"Arm_R_Mamadissim.002",
			"primitives":[
				{
					"attributes":{
						"POSITION":4,
						"NORMAL":5,
						"TEXCOORD_0":6
					},
					"indices":3
				}
			]
		},
		{
			"name":"Booty_Mamadissim.001",
			"primitives":[
				{
					"attributes":{
						"POSITION":7,
						"NORMAL":8,
						"TEXCOORD_0":9
					},
					"indices":10,
					"material":0
				}
			]
		},
		{
			"name":"Head_Mamadissim.001",
			"primitives":[
				{
					"attributes":{
						"POSITION":11,
						"NORMAL":12,
						"TEXCOORD_0":13
					},
					"indices":14
				}
			]
		},
		{
			"name":"Leg_L_Mamadissim.001",
			"primitives":[
				{
					"attributes":{
						"POSITION":15,
						"NORMAL":16,
						"TEXCOORD_0":17
					},
					"indices":18,
					"material":0
				}
			]
		},
		{
			"name":"Leg_R_Mamadissim.001",
			"primitives":[
				{
					"attributes":{
						"POSITION":19,
						"NORMAL":20,
						"TEXCOORD_0":21
					},
					"indices":18,
					"material":0
				}
			]
		},
		{
			"name":"Body_Mamadissim.001",
			"primitives":[
				{
					"attributes":{
						"POSITION":22,
						"NORMAL":23,
						"TEXCOORD_0":24
					},
					"indices":25,
					"material":0
				}
			]
		}
	],
	"accessors":[
		{
			"bufferView":0,
			"componentType":5126,
			"count":100,
			"max":[
				0.7971694469451904,
				0.023696422576904297,
				0.5558048486709595
			],
			"min":[
				-2.183579444885254,
				-2.4887759685516357,
				-0.6377118825912476
			],
			"type":"VEC3"
		},
		{
			"bufferView":1,
			"componentType":5126,
			"count":100,
			"type":"VEC3"
		},
		{
			"bufferView":2,
			"componentType":5126,
			"count":100,
			"type":"VEC2"
		},
		{
			"bufferView":3,
			"componentType":5123,
			"count":156,
			"type":"SCALAR"
		},
		{
			"bufferView":4,
			"componentType":5126,
			"count":100,
			"max":[
				0.7971694469451904,
				0.023696422576904297,
				0.5558048486709595
			],
			"min":[
				-2.183579444885254,
				-2.4887759685516357,
				-0.6377118825912476
			],
			"type":"VEC3"
		},
		{
			"bufferView":5,
			"componentType":5126,
			"count":100,
			"type":"VEC3"
		},
		{
			"bufferView":6,
			"componentType":5126,
			"count":100,
			"type":"VEC2"
		},
		{
			"bufferView":7,
			"componentType":5126,
			"count":67,
			"max":[
				1.1676464080810547,
				-0.6988639831542969,
				0.5761987566947937
			],
			"min":[
				-1.1677048206329346,
				-1.684178352355957,
				-0.7444635033607483
			],
			"type":"VEC3"
		},
		{
			"bufferView":8,
			"componentType":5126,
			"count":67,
			"type":"VEC3"
		},
		{
			"bufferView":9,
			"componentType":5126,
			"count":67,
			"type":"VEC2"
		},
		{
			"bufferView":10,
			"componentType":5123,
			"count":108,
			"type":"SCALAR"
		},
		{
			"bufferView":11,
			"componentType":5126,
			"count":128,
			"max":[
				1.3256663084030151,
				1.587695837020874,
				1.2140318155288696
			],
			"min":[
				-1.3256663084030151,
				-1.0982680320739746,
				-1.3897061347961426
			],
			"type":"VEC3"
		},
		{
			"bufferView":12,
			"componentType":5126,
			"count":128,
			"type":"VEC3"
		},
		{
			"bufferView":13,
			"componentType":5126,
			"count":128,
			"type":"VEC2"
		},
		{
			"bufferView":14,
			"componentType":5123,
			"count":192,
			"type":"SCALAR"
		},
		{
			"bufferView":15,
			"componentType":5126,
			"count":102,
			"max":[
				0.5686066150665283,
				-0.0011105537414550781,
				0.8734748959541321
			],
			"min":[
				-0.5383853316307068,
				-3.5415029525756836,
				-0.5050851106643677
			],
			"type":"VEC3"
		},
		{
			"bufferView":16,
			"componentType":5126,
			"count":102,
			"type":"VEC3"
		},
		{
			"bufferView":17,
			"componentType":5126,
			"count":102,
			"type":"VEC2"
		},
		{
			"bufferView":18,
			"componentType":5123,
			"count":156,
			"type":"SCALAR"
		},
		{
			"bufferView":19,
			"componentType":5126,
			"count":102,
			"max":[
				0.5686066150665283,
				-0.0011105537414550781,
				0.8734748959541321
			],
			"min":[
				-0.5383853316307068,
				-3.5415029525756836,
				-0.5050851106643677
			],
			"type":"VEC3"
		},
		{
			"bufferView":20,
			"componentType":5126,
			"count":102,
			"type":"VEC3"
		},
		{
			"bufferView":21,
			"componentType":5126,
			"count":102,
			"type":"VEC2"
		},
		{
			"bufferView":22,
			"componentType":5126,
			"count":56,
			"max":[
				1.1738901138305664,
				1.8562140464782715,
				0.7592746019363403
			],
			"min":[
				-1.1738446950912476,
				-0.6988639831542969,
				-0.5369971990585327
			],
			"type":"VEC3"
		},
		{
			"bufferView":23,
			"componentType":5126,
			"count":56,
			"type":"VEC3"
		},
		{
			"bufferView":24,
			"componentType":5126,
			"count":56,
			"type":"VEC2"
		},
		{
			"bufferView":25,
			"componentType":5123,
			"count":96,
			"type":"SCALAR"
		}
	],
	"bufferViews":[
		{
			"buffer":0,
			"byteLength":1200,
			"byteOffset":0,
			"target":34962
		},
		{
			"buffer":0,
			"byteLength":1200,
			"byteOffset":1200,
			"target":34962
		},
		{
			"buffer":0,
			"byteLength":800,
			"byteOffset":2400,
			"target":34962
		},
		{
			"buffer":0,
			"byteLength":312,
			"byteOffset":3200,
			"target":34963
		},
		{
			"buffer":0,
			"byteLength":1200,
			"byteOffset":3512,
			"target":34962
		},
		{
			"buffer":0,
			"byteLength":1200,
			"byteOffset":4712,
			"target":34962
		},
		{
			"buffer":0,
			"byteLength":800,
			"byteOffset":5912,
			"target":34962
		},
		{
			"buffer":0,
			"byteLength":804,
			"byteOffset":6712,
			"target":34962
		},
		{
			"buffer":0,
			"byteLength":804,
			"byteOffset":7516,
			"target":34962
		},
		{
			"buffer":0,
			"byteLength":536,
			"byteOffset":8320,
			"target":34962
		},
		{
			"buffer":0,
			"byteLength":216,
			"byteOffset":8856,
			"target":34963
		},
		{
			"buffer":0,
			"byteLength":1536,
			"byteOffset":9072,
			"target":34962
		},
		{
			"buffer":0,
			"byteLength":1536,
			"byteOffset":10608,
			"target":34962
		},
		{
			"buffer":0,
			"byteLength":1024,
			"byteOffset":12144,
			"target":34962
		},
		{
			"buffer":0,
			"byteLength":384,
			"byteOffset":13168,
			"target":34963
		},
		{
			"buffer":0,
			"byteLength":1224,
			"byteOffset":13552,
			"target":34962
		},
		{
			"buffer":0,
			"byteLength":1224,
			"byteOffset":14776,
			"target":34962
		},
		{
			"buffer":0,
			"byteLength":816,
			"byteOffset":16000,
			"target":34962
		},
		{
			"buffer":0,
			"byteLength":312,
			"byteOffset":16816,
			"target":34963
		},
		{
			"buffer":0,
			"byteLength":1224,
			"byteOffset":17128,
			"target":34962
		},
		{
			"buffer":0,
			"byteLength":1224,
			"byteOffset":18352,
			"target":34962
		},
		{
			"buffer":0,
			"byteLength":816,
			"byteOffset":19576,
			"target":34962
		},
		{
			"buffer":0,
			"byteLength":672,
			"byteOffset":20392,
			"target":34962
		},
		{
			"buffer":0,
			"byteLength":672,
			"byteOffset":21064,
			"target":34962
		},
		{
			"buffer":0,
			"byteLength":448,
			"byteOffset":21736,
			"target":34962
		},
		{
			"buffer":0,
			"byteLength":192,
			"byteOffset":22184,
			"target":34963
		}
	],
	"buffers":[
		{
			"byteLength":22376,
			"uri":"mamadissim_dobleBiceps.bin"
		}
	]
}
