{
	"asset":{
		"generator":"Khronos glTF Blender I/O v4.2.60",
		"version":"2.0"
	},
	"scene":0,
	"scenes":[
		{
			"name":"Scene",
			"nodes":[
				6
			]
		}
	],
	"nodes":[
		{
			"mesh":0,
			"name":"Arm_L_Normalucho",
			"rotation":[
				1,
				0,
				0,
				0
			],
			"scale":[
				-1,
				-1,
				-1
			],
			"translation":[
				-1.4451528787612915,
				1.8319697380065918,
				0
			]
		},
		{
			"mesh":1,
			"name":"Arm_R_Normalucho",
			"translation":[
				1.4664279222488403,
				1.8319697380065918,
				0
			]
		},
		{
			"mesh":2,
			"name":"Booty_Normalucho"
		},
		{
			"mesh":3,
			"name":"Head_Normalucho",
			"scale":[
				0.7416545152664185,
				0.8417667746543884,
				0.7601324915885925
			],
			"translation":[
				-0.005142266396433115,
				2.789768695831299,
				0
			]
		},
		{
			"mesh":4,
			"name":"Leg_L_Normalucho",
			"rotation":[
				1,
				0,
				0,
				0
			],
			"scale":[
				-1,
				-1,
				-1
			],
			"translation":[
				-0.6411412358283997,
				-1.6906085014343262,
				0
			]
		},
		{
			"mesh":5,
			"name":"Leg_R_Normalucho",
			"translation":[
				0.6624161601066589,
				-1.6906085014343262,
				0
			]
		},
		{
			"children":[
				0,
				1,
				2,
				3,
				4,
				5
			],
			"mesh":6,
			"name":"Body_Normalucho",
			"translation":[
				0.005142266396433115,
				5.228597164154053,
				0
			]
		}
	],
	"materials":[
		{
			"doubleSided":true,
			"name":"Material",
			"pbrMetallicRoughness":{
				"baseColorFactor":[
					0.800000011920929,
					0.800000011920929,
					0.800000011920929,
					1
				],
				"metallicFactor":0,
				"roughnessFactor":0.5
			}
		}
	],
	"meshes":[
		{
			"name":"Arm_L_Normalucho",
			"primitives":[
				{
					"attributes":{
						"POSITION":0,
						"NORMAL":1,
						"TEXCOORD_0":2
					},
					"indices":3
				}
			]
		},
		{
			"name":"Arm_R_Normalucho",
			"primitives":[
				{
					"attributes":{
						"POSITION":4,
						"NORMAL":5,
						"TEXCOORD_0":6
					},
					"indices":3
				}
			]
		},
		{
			"name":"Cube.008",
			"primitives":[
				{
					"attributes":{
						"POSITION":7,
						"NORMAL":8,
						"TEXCOORD_0":9
					},
					"indices":10,
					"material":0
				}
			]
		},
		{
			"name":"Head_Normalucho",
			"primitives":[
				{
					"attributes":{
						"POSITION":11,
						"NORMAL":12,
						"TEXCOORD_0":13
					},
					"indices":14
				}
			]
		},
		{
			"name":"Leg_L_Normalucho",
			"primitives":[
				{
					"attributes":{
						"POSITION":15,
						"NORMAL":16,
						"TEXCOORD_0":17
					},
					"indices":18,
					"material":0
				}
			]
		},
		{
			"name":"Leg_R_Normalucho",
			"primitives":[
				{
					"attributes":{
						"POSITION":19,
						"NORMAL":20,
						"TEXCOORD_0":21
					},
					"indices":18,
					"material":0
				}
			]
		},
		{
			"name":"Body_Normalucho",
			"primitives":[
				{
					"attributes":{
						"POSITION":22,
						"NORMAL":23,
						"TEXCOORD_0":24
					},
					"indices":25,
					"material":0
				}
			]
		}
	],
	"accessors":[
		{
			"bufferView":0,
			"componentType":5126,
			"count":76,
			"max":[
				0.5760966539382935,
				0.023696422576904297,
				0.31855422258377075
			],
			"min":[
				-0.3114588260650635,
				-4.546036720275879,
				-0.4003984332084656
			],
			"type":"VEC3"
		},
		{
			"bufferView":1,
			"componentType":5126,
			"count":76,
			"type":"VEC3"
		},
		{
			"bufferView":2,
			"componentType":5126,
			"count":76,
			"type":"VEC2"
		},
		{
			"bufferView":3,
			"componentType":5123,
			"count":132,
			"type":"SCALAR"
		},
		{
			"bufferView":4,
			"componentType":5126,
			"count":76,
			"max":[
				0.5760966539382935,
				0.023696422576904297,
				0.31855422258377075
			],
			"min":[
				-0.3114588260650635,
				-4.546036720275879,
				-0.4003984332084656
			],
			"type":"VEC3"
		},
		{
			"bufferView":5,
			"componentType":5126,
			"count":76,
			"type":"VEC3"
		},
		{
			"bufferView":6,
			"componentType":5126,
			"count":76,
			"type":"VEC2"
		},
		{
			"bufferView":7,
			"componentType":5126,
			"count":32,
			"max":[
				1.242364525794983,
				-0.6988639831542969,
				0.6269486546516418
			],
			"min":[
				-1.2425274848937988,
				-1.684178352355957,
				-0.5369879007339478
			],
			"type":"VEC3"
		},
		{
			"bufferView":8,
			"componentType":5126,
			"count":32,
			"type":"VEC3"
		},
		{
			"bufferView":9,
			"componentType":5126,
			"count":32,
			"type":"VEC2"
		},
		{
			"bufferView":10,
			"componentType":5123,
			"count":60,
			"type":"SCALAR"
		},
		{
			"bufferView":11,
			"componentType":5126,
			"count":96,
			"max":[
				1.104453444480896,
				1.4143038988113403,
				1
			],
			"min":[
				-1.104453444480896,
				-1.0982680320739746,
				-1.1059095859527588
			],
			"type":"VEC3"
		},
		{
			"bufferView":12,
			"componentType":5126,
			"count":96,
			"type":"VEC3"
		},
		{
			"bufferView":13,
			"componentType":5126,
			"count":96,
			"type":"VEC2"
		},
		{
			"bufferView":14,
			"componentType":5123,
			"count":144,
			"type":"SCALAR"
		},
		{
			"bufferView":15,
			"componentType":5126,
			"count":100,
			"max":[
				0.4583304822444916,
				-0.0011105537414550781,
				0.8734748959541321
			],
			"min":[
				-0.4785322844982147,
				-3.5415029525756836,
				-0.4464314579963684
			],
			"type":"VEC3"
		},
		{
			"bufferView":16,
			"componentType":5126,
			"count":100,
			"type":"VEC3"
		},
		{
			"bufferView":17,
			"componentType":5126,
			"count":100,
			"type":"VEC2"
		},
		{
			"bufferView":18,
			"componentType":5123,
			"count":156,
			"type":"SCALAR"
		},
		{
			"bufferView":19,
			"componentType":5126,
			"count":100,
			"max":[
				0.4583304822444916,
				-0.0011105537414550781,
				0.8734748959541321
			],
			"min":[
				-0.4785322844982147,
				-3.5415029525756836,
				-0.4464314579963684
			],
			"type":"VEC3"
		},
		{
			"bufferView":20,
			"componentType":5126,
			"count":100,
			"type":"VEC3"
		},
		{
			"bufferView":21,
			"componentType":5126,
			"count":100,
			"type":"VEC2"
		},
		{
			"bufferView":22,
			"componentType":5126,
			"count":52,
			"max":[
				1.242364525794983,
				1.8562140464782715,
				0.6269486546516418
			],
			"min":[
				-1.2425274848937988,
				-0.6988639831542969,
				-0.5369971990585327
			],
			"type":"VEC3"
		},
		{
			"bufferView":23,
			"componentType":5126,
			"count":52,
			"type":"VEC3"
		},
		{
			"bufferView":24,
			"componentType":5126,
			"count":52,
			"type":"VEC2"
		},
		{
			"bufferView":25,
			"componentType":5123,
			"count":96,
			"type":"SCALAR"
		}
	],
	"bufferViews":[
		{
			"buffer":0,
			"byteLength":912,
			"byteOffset":0,
			"target":34962
		},
		{
			"buffer":0,
			"byteLength":912,
			"byteOffset":912,
			"target":34962
		},
		{
			"buffer":0,
			"byteLength":608,
			"byteOffset":1824,
			"target":34962
		},
		{
			"buffer":0,
			"byteLength":264,
			"byteOffset":2432,
			"target":34963
		},
		{
			"buffer":0,
			"byteLength":912,
			"byteOffset":2696,
			"target":34962
		},
		{
			"buffer":0,
			"byteLength":912,
			"byteOffset":3608,
			"target":34962
		},
		{
			"buffer":0,
			"byteLength":608,
			"byteOffset":4520,
			"target":34962
		},
		{
			"buffer":0,
			"byteLength":384,
			"byteOffset":5128,
			"target":34962
		},
		{
			"buffer":0,
			"byteLength":384,
			"byteOffset":5512,
			"target":34962
		},
		{
			"buffer":0,
			"byteLength":256,
			"byteOffset":5896,
			"target":34962
		},
		{
			"buffer":0,
			"byteLength":120,
			"byteOffset":6152,
			"target":34963
		},
		{
			"buffer":0,
			"byteLength":1152,
			"byteOffset":6272,
			"target":34962
		},
		{
			"buffer":0,
			"byteLength":1152,
			"byteOffset":7424,
			"target":34962
		},
		{
			"buffer":0,
			"byteLength":768,
			"byteOffset":8576,
			"target":34962
		},
		{
			"buffer":0,
			"byteLength":288,
			"byteOffset":9344,
			"target":34963
		},
		{
			"buffer":0,
			"byteLength":1200,
			"byteOffset":9632,
			"target":34962
		},
		{
			"buffer":0,
			"byteLength":1200,
			"byteOffset":10832,
			"target":34962
		},
		{
			"buffer":0,
			"byteLength":800,
			"byteOffset":12032,
			"target":34962
		},
		{
			"buffer":0,
			"byteLength":312,
			"byteOffset":12832,
			"target":34963
		},
		{
			"buffer":0,
			"byteLength":1200,
			"byteOffset":13144,
			"target":34962
		},
		{
			"buffer":0,
			"byteLength":1200,
			"byteOffset":14344,
			"target":34962
		},
		{
			"buffer":0,
			"byteLength":800,
			"byteOffset":15544,
			"target":34962
		},
		{
			"buffer":0,
			"byteLength":624,
			"byteOffset":16344,
			"target":34962
		},
		{
			"buffer":0,
			"byteLength":624,
			"byteOffset":16968,
			"target":34962
		},
		{
			"buffer":0,
			"byteLength":416,
			"byteOffset":17592,
			"target":34962
		},
		{
			"buffer":0,
			"byteLength":192,
			"byteOffset":18008,
			"target":34963
		}
	],
	"buffers":[
		{
			"byteLength":18200,
			"uri":"Personatge_Normalucho.bin"
		}
	]
}
