{
	"asset":{
		"generator":"Khronos glTF Blender I/O v4.2.60",
		"version":"2.0"
	},
	"scene":0,
	"scenes":[
		{
			"name":"Scene",
			"nodes":[
				6
			]
		}
	],
	"nodes":[
		{
			"mesh":0,
			"name":"Arm_L_Flacucho",
			"rotation":[
				1,
				0,
				0,
				0
			],
			"scale":[
				-0.9251419901847839,
				-1,
				-0.9251419901847839
			],
			"translation":[
				-1.4451528787612915,
				1.8319697380065918,
				0
			]
		},
		{
			"mesh":1,
			"name":"Arm_R_Flacucho",
			"scale":[
				0.9251419901847839,
				1,
				0.9251415133476257
			],
			"translation":[
				1.4664279222488403,
				1.8319697380065918,
				0
			]
		},
		{
			"mesh":2,
			"name":"Booty_Flacucho",
			"translation":[
				-5.5363867431879044e-05,
				-1.191521167755127,
				-0.001687241136096418
			]
		},
		{
			"mesh":3,
			"name":"Head_Flacucho",
			"scale":[
				0.7416545152664185,
				0.8417667746543884,
				0.7601324915885925
			],
			"translation":[
				-0.005142266396433115,
				2.789768695831299,
				0
			]
		},
		{
			"mesh":4,
			"name":"Leg_L_Flacucho",
			"rotation":[
				1,
				0,
				0,
				0
			],
			"scale":[
				-1,
				-1,
				-1
			],
			"translation":[
				-0.6411412358283997,
				-1.6906085014343262,
				0
			]
		},
		{
			"mesh":5,
			"name":"Leg_R_Flacucho",
			"translation":[
				0.6624161601066589,
				-1.6906085014343262,
				0
			]
		},
		{
			"children":[
				0,
				1,
				2,
				3,
				4,
				5
			],
			"mesh":6,
			"name":"Body_Flacucho",
			"translation":[
				0.005142266396433115,
				5.228597164154053,
				0
			]
		}
	],
	"materials":[
		{
			"doubleSided":true,
			"name":"Material",
			"pbrMetallicRoughness":{
				"baseColorFactor":[
					0.800000011920929,
					0.800000011920929,
					0.800000011920929,
					1
				],
				"metallicFactor":0,
				"roughnessFactor":0.5
			}
		}
	],
	"meshes":[
		{
			"name":"Arm_L_Flacucho",
			"primitives":[
				{
					"attributes":{
						"POSITION":0,
						"NORMAL":1,
						"TEXCOORD_0":2
					},
					"indices":3
				}
			]
		},
		{
			"name":"Arm_R_Flacucho",
			"primitives":[
				{
					"attributes":{
						"POSITION":4,
						"NORMAL":5,
						"TEXCOORD_0":6
					},
					"indices":3
				}
			]
		},
		{
			"name":"Cube.023",
			"primitives":[
				{
					"attributes":{
						"POSITION":7,
						"NORMAL":8,
						"TEXCOORD_0":9
					},
					"indices":10,
					"material":0
				}
			]
		},
		{
			"name":"Head_Flacucho",
			"primitives":[
				{
					"attributes":{
						"POSITION":11,
						"NORMAL":12,
						"TEXCOORD_0":13
					},
					"indices":14
				}
			]
		},
		{
			"name":"Leg_L_Flacucho",
			"primitives":[
				{
					"attributes":{
						"POSITION":15,
						"NORMAL":16,
						"TEXCOORD_0":17
					},
					"indices":18,
					"material":0
				}
			]
		},
		{
			"name":"Leg_R_Flacucho",
			"primitives":[
				{
					"attributes":{
						"POSITION":19,
						"NORMAL":20,
						"TEXCOORD_0":21
					},
					"indices":18,
					"material":0
				}
			]
		},
		{
			"name":"Body_Flacucho",
			"primitives":[
				{
					"attributes":{
						"POSITION":22,
						"NORMAL":23,
						"TEXCOORD_0":24
					},
					"indices":25,
					"material":0
				}
			]
		}
	],
	"accessors":[
		{
			"bufferView":0,
			"componentType":5126,
			"count":84,
			"max":[
				0.5760966539382935,
				0.023696422576904297,
				0.31855422258377075
			],
			"min":[
				-0.3114588260650635,
				-4.546036720275879,
				-0.4003984332084656
			],
			"type":"VEC3"
		},
		{
			"bufferView":1,
			"componentType":5126,
			"count":84,
			"type":"VEC3"
		},
		{
			"bufferView":2,
			"componentType":5126,
			"count":84,
			"type":"VEC2"
		},
		{
			"bufferView":3,
			"componentType":5123,
			"count":132,
			"type":"SCALAR"
		},
		{
			"bufferView":4,
			"componentType":5126,
			"count":84,
			"max":[
				0.5760966539382935,
				0.023696422576904297,
				0.31855422258377075
			],
			"min":[
				-0.3114588260650635,
				-4.546036720275879,
				-0.4003984332084656
			],
			"type":"VEC3"
		},
		{
			"bufferView":5,
			"componentType":5126,
			"count":84,
			"type":"VEC3"
		},
		{
			"bufferView":6,
			"componentType":5126,
			"count":84,
			"type":"VEC2"
		},
		{
			"bufferView":7,
			"componentType":5126,
			"count":36,
			"max":[
				1.0029419660568237,
				0.4926571846008301,
				0.5550733208656311
			],
			"min":[
				-1.0028897523880005,
				-0.4926571846008301,
				-0.5353006720542908
			],
			"type":"VEC3"
		},
		{
			"bufferView":8,
			"componentType":5126,
			"count":36,
			"type":"VEC3"
		},
		{
			"bufferView":9,
			"componentType":5126,
			"count":36,
			"type":"VEC2"
		},
		{
			"bufferView":10,
			"componentType":5123,
			"count":60,
			"type":"SCALAR"
		},
		{
			"bufferView":11,
			"componentType":5126,
			"count":96,
			"max":[
				1.104453444480896,
				1.4143038988113403,
				1
			],
			"min":[
				-1.104453444480896,
				-1.0982680320739746,
				-1.1059095859527588
			],
			"type":"VEC3"
		},
		{
			"bufferView":12,
			"componentType":5126,
			"count":96,
			"type":"VEC3"
		},
		{
			"bufferView":13,
			"componentType":5126,
			"count":96,
			"type":"VEC2"
		},
		{
			"bufferView":14,
			"componentType":5123,
			"count":144,
			"type":"SCALAR"
		},
		{
			"bufferView":15,
			"componentType":5126,
			"count":102,
			"max":[
				0.3191012144088745,
				-0.0011105537414550781,
				0.8734748959541321
			],
			"min":[
				-0.3551120460033417,
				-3.5415029525756836,
				-0.40988606214523315
			],
			"type":"VEC3"
		},
		{
			"bufferView":16,
			"componentType":5126,
			"count":102,
			"type":"VEC3"
		},
		{
			"bufferView":17,
			"componentType":5126,
			"count":102,
			"type":"VEC2"
		},
		{
			"bufferView":18,
			"componentType":5123,
			"count":156,
			"type":"SCALAR"
		},
		{
			"bufferView":19,
			"componentType":5126,
			"count":102,
			"max":[
				0.3191012144088745,
				-0.0011105537414550781,
				0.8734748959541321
			],
			"min":[
				-0.3551120460033417,
				-3.5415029525756836,
				-0.40988606214523315
			],
			"type":"VEC3"
		},
		{
			"bufferView":20,
			"componentType":5126,
			"count":102,
			"type":"VEC3"
		},
		{
			"bufferView":21,
			"componentType":5126,
			"count":102,
			"type":"VEC2"
		},
		{
			"bufferView":22,
			"componentType":5126,
			"count":62,
			"max":[
				1.0851956605911255,
				1.8562140464782715,
				0.5048120021820068
			],
			"min":[
				-1.0850193500518799,
				-0.6988639831542969,
				-0.5352473258972168
			],
			"type":"VEC3"
		},
		{
			"bufferView":23,
			"componentType":5126,
			"count":62,
			"type":"VEC3"
		},
		{
			"bufferView":24,
			"componentType":5126,
			"count":62,
			"type":"VEC2"
		},
		{
			"bufferView":25,
			"componentType":5123,
			"count":96,
			"type":"SCALAR"
		}
	],
	"bufferViews":[
		{
			"buffer":0,
			"byteLength":1008,
			"byteOffset":0,
			"target":34962
		},
		{
			"buffer":0,
			"byteLength":1008,
			"byteOffset":1008,
			"target":34962
		},
		{
			"buffer":0,
			"byteLength":672,
			"byteOffset":2016,
			"target":34962
		},
		{
			"buffer":0,
			"byteLength":264,
			"byteOffset":2688,
			"target":34963
		},
		{
			"buffer":0,
			"byteLength":1008,
			"byteOffset":2952,
			"target":34962
		},
		{
			"buffer":0,
			"byteLength":1008,
			"byteOffset":3960,
			"target":34962
		},
		{
			"buffer":0,
			"byteLength":672,
			"byteOffset":4968,
			"target":34962
		},
		{
			"buffer":0,
			"byteLength":432,
			"byteOffset":5640,
			"target":34962
		},
		{
			"buffer":0,
			"byteLength":432,
			"byteOffset":6072,
			"target":34962
		},
		{
			"buffer":0,
			"byteLength":288,
			"byteOffset":6504,
			"target":34962
		},
		{
			"buffer":0,
			"byteLength":120,
			"byteOffset":6792,
			"target":34963
		},
		{
			"buffer":0,
			"byteLength":1152,
			"byteOffset":6912,
			"target":34962
		},
		{
			"buffer":0,
			"byteLength":1152,
			"byteOffset":8064,
			"target":34962
		},
		{
			"buffer":0,
			"byteLength":768,
			"byteOffset":9216,
			"target":34962
		},
		{
			"buffer":0,
			"byteLength":288,
			"byteOffset":9984,
			"target":34963
		},
		{
			"buffer":0,
			"byteLength":1224,
			"byteOffset":10272,
			"target":34962
		},
		{
			"buffer":0,
			"byteLength":1224,
			"byteOffset":11496,
			"target":34962
		},
		{
			"buffer":0,
			"byteLength":816,
			"byteOffset":12720,
			"target":34962
		},
		{
			"buffer":0,
			"byteLength":312,
			"byteOffset":13536,
			"target":34963
		},
		{
			"buffer":0,
			"byteLength":1224,
			"byteOffset":13848,
			"target":34962
		},
		{
			"buffer":0,
			"byteLength":1224,
			"byteOffset":15072,
			"target":34962
		},
		{
			"buffer":0,
			"byteLength":816,
			"byteOffset":16296,
			"target":34962
		},
		{
			"buffer":0,
			"byteLength":744,
			"byteOffset":17112,
			"target":34962
		},
		{
			"buffer":0,
			"byteLength":744,
			"byteOffset":17856,
			"target":34962
		},
		{
			"buffer":0,
			"byteLength":496,
			"byteOffset":18600,
			"target":34962
		},
		{
			"buffer":0,
			"byteLength":192,
			"byteOffset":19096,
			"target":34963
		}
	],
	"buffers":[
		{
			"byteLength":19288,
			"uri":"Personatge_Flacucho.bin"
		}
	]
}
