{
	"asset":{
		"generator":"Khronos glTF Blender I/O v4.2.60",
		"version":"2.0"
	},
	"scene":0,
	"scenes":[
		{
			"name":"Scene",
			"nodes":[
				6
			]
		}
	],
	"nodes":[
		{
			"mesh":0,
			"name":"Arm_L_Gordo",
			"rotation":[
				1,
				0,
				0,
				0
			],
			"scale":[
				-1,
				-1,
				-1
			],
			"translation":[
				-1.4451528787612915,
				1.8319697380065918,
				0
			]
		},
		{
			"mesh":1,
			"name":"Arm_R_Gordo",
			"translation":[
				1.4664279222488403,
				1.8319697380065918,
				0
			]
		},
		{
			"mesh":2,
			"name":"Booty_Gordo"
		},
		{
			"mesh":3,
			"name":"Head_Gordo",
			"scale":[
				0.7416545152664185,
				0.8417667746543884,
				0.7601324915885925
			],
			"translation":[
				-0.005142266396433115,
				2.789768695831299,
				0
			]
		},
		{
			"mesh":4,
			"name":"Leg_L_Gordo",
			"rotation":[
				1,
				0,
				0,
				0
			],
			"scale":[
				-1,
				-1,
				-1
			],
			"translation":[
				-0.6411412358283997,
				-1.6906085014343262,
				0
			]
		},
		{
			"mesh":5,
			"name":"Leg_R_Gordo",
			"translation":[
				0.6624161601066589,
				-1.6906085014343262,
				0
			]
		},
		{
			"children":[
				0,
				1,
				2,
				3,
				4,
				5
			],
			"mesh":6,
			"name":"Body_Gordo",
			"translation":[
				0.005142266396433115,
				5.228597164154053,
				0
			]
		}
	],
	"materials":[
		{
			"doubleSided":true,
			"name":"Material",
			"pbrMetallicRoughness":{
				"baseColorFactor":[
					0.800000011920929,
					0.800000011920929,
					0.800000011920929,
					1
				],
				"metallicFactor":0,
				"roughnessFactor":0.5
			}
		}
	],
	"meshes":[
		{
			"name":"Arm_L_Gordo",
			"primitives":[
				{
					"attributes":{
						"POSITION":0,
						"NORMAL":1,
						"TEXCOORD_0":2
					},
					"indices":3
				}
			]
		},
		{
			"name":"Arm_R_Gordo",
			"primitives":[
				{
					"attributes":{
						"POSITION":4,
						"NORMAL":5,
						"TEXCOORD_0":6
					},
					"indices":3
				}
			]
		},
		{
			"name":"Booty_Gordo",
			"primitives":[
				{
					"attributes":{
						"POSITION":7,
						"NORMAL":8,
						"TEXCOORD_0":9
					},
					"indices":10,
					"material":0
				}
			]
		},
		{
			"name":"Head_Gordo",
			"primitives":[
				{
					"attributes":{
						"POSITION":11,
						"NORMAL":12,
						"TEXCOORD_0":13
					},
					"indices":14
				}
			]
		},
		{
			"name":"Leg_L_Gordo",
			"primitives":[
				{
					"attributes":{
						"POSITION":15,
						"NORMAL":16,
						"TEXCOORD_0":17
					},
					"indices":18,
					"material":0
				}
			]
		},
		{
			"name":"Leg_R_Gordo",
			"primitives":[
				{
					"attributes":{
						"POSITION":19,
						"NORMAL":20,
						"TEXCOORD_0":21
					},
					"indices":18,
					"material":0
				}
			]
		},
		{
			"name":"Body_Gordo",
			"primitives":[
				{
					"attributes":{
						"POSITION":22,
						"NORMAL":23,
						"TEXCOORD_0":24
					},
					"indices":25,
					"material":0
				}
			]
		}
	],
	"accessors":[
		{
			"bufferView":0,
			"componentType":5126,
			"count":76,
			"max":[
				0.6658918857574463,
				0.023696422576904297,
				0.33597904443740845
			],
			"min":[
				-0.3114588260650635,
				-4.73952054977417,
				-0.41730597615242004
			],
			"type":"VEC3"
		},
		{
			"bufferView":1,
			"componentType":5126,
			"count":76,
			"type":"VEC3"
		},
		{
			"bufferView":2,
			"componentType":5126,
			"count":76,
			"type":"VEC2"
		},
		{
			"bufferView":3,
			"componentType":5123,
			"count":132,
			"type":"SCALAR"
		},
		{
			"bufferView":4,
			"componentType":5126,
			"count":76,
			"max":[
				0.6658918857574463,
				0.023696422576904297,
				0.33597904443740845
			],
			"min":[
				-0.3114588260650635,
				-4.73952054977417,
				-0.41730597615242004
			],
			"type":"VEC3"
		},
		{
			"bufferView":5,
			"componentType":5126,
			"count":76,
			"type":"VEC3"
		},
		{
			"bufferView":6,
			"componentType":5126,
			"count":76,
			"type":"VEC2"
		},
		{
			"bufferView":7,
			"componentType":5126,
			"count":36,
			"max":[
				1.3454753160476685,
				-0.6988639831542969,
				1.2891031503677368
			],
			"min":[
				-1.3456382751464844,
				-1.684178352355957,
				-0.7891073226928711
			],
			"type":"VEC3"
		},
		{
			"bufferView":8,
			"componentType":5126,
			"count":36,
			"type":"VEC3"
		},
		{
			"bufferView":9,
			"componentType":5126,
			"count":36,
			"type":"VEC2"
		},
		{
			"bufferView":10,
			"componentType":5123,
			"count":60,
			"type":"SCALAR"
		},
		{
			"bufferView":11,
			"componentType":5126,
			"count":96,
			"max":[
				1.2094064950942993,
				1.4143038988113403,
				1
			],
			"min":[
				-1.2094064950942993,
				-1.0982680320739746,
				-1.1059095859527588
			],
			"type":"VEC3"
		},
		{
			"bufferView":12,
			"componentType":5126,
			"count":96,
			"type":"VEC3"
		},
		{
			"bufferView":13,
			"componentType":5126,
			"count":96,
			"type":"VEC2"
		},
		{
			"bufferView":14,
			"componentType":5123,
			"count":144,
			"type":"SCALAR"
		},
		{
			"bufferView":15,
			"componentType":5126,
			"count":102,
			"max":[
				0.5274230241775513,
				-0.0011105537414550781,
				0.8734748959541321
			],
			"min":[
				-0.6121791005134583,
				-3.5415029525756836,
				-0.5228686332702637
			],
			"type":"VEC3"
		},
		{
			"bufferView":16,
			"componentType":5126,
			"count":102,
			"type":"VEC3"
		},
		{
			"bufferView":17,
			"componentType":5126,
			"count":102,
			"type":"VEC2"
		},
		{
			"bufferView":18,
			"componentType":5123,
			"count":156,
			"type":"SCALAR"
		},
		{
			"bufferView":19,
			"componentType":5126,
			"count":102,
			"max":[
				0.5274230241775513,
				-0.0011105537414550781,
				0.8734748959541321
			],
			"min":[
				-0.6121791005134583,
				-3.5415029525756836,
				-0.5228686332702637
			],
			"type":"VEC3"
		},
		{
			"bufferView":20,
			"componentType":5126,
			"count":102,
			"type":"VEC3"
		},
		{
			"bufferView":21,
			"componentType":5126,
			"count":102,
			"type":"VEC2"
		},
		{
			"bufferView":22,
			"componentType":5126,
			"count":60,
			"max":[
				1.3454753160476685,
				1.8562140464782715,
				1.2891031503677368
			],
			"min":[
				-1.3456382751464844,
				-0.6988639831542969,
				-0.7891073226928711
			],
			"type":"VEC3"
		},
		{
			"bufferView":23,
			"componentType":5126,
			"count":60,
			"type":"VEC3"
		},
		{
			"bufferView":24,
			"componentType":5126,
			"count":60,
			"type":"VEC2"
		},
		{
			"bufferView":25,
			"componentType":5123,
			"count":96,
			"type":"SCALAR"
		}
	],
	"bufferViews":[
		{
			"buffer":0,
			"byteLength":912,
			"byteOffset":0,
			"target":34962
		},
		{
			"buffer":0,
			"byteLength":912,
			"byteOffset":912,
			"target":34962
		},
		{
			"buffer":0,
			"byteLength":608,
			"byteOffset":1824,
			"target":34962
		},
		{
			"buffer":0,
			"byteLength":264,
			"byteOffset":2432,
			"target":34963
		},
		{
			"buffer":0,
			"byteLength":912,
			"byteOffset":2696,
			"target":34962
		},
		{
			"buffer":0,
			"byteLength":912,
			"byteOffset":3608,
			"target":34962
		},
		{
			"buffer":0,
			"byteLength":608,
			"byteOffset":4520,
			"target":34962
		},
		{
			"buffer":0,
			"byteLength":432,
			"byteOffset":5128,
			"target":34962
		},
		{
			"buffer":0,
			"byteLength":432,
			"byteOffset":5560,
			"target":34962
		},
		{
			"buffer":0,
			"byteLength":288,
			"byteOffset":5992,
			"target":34962
		},
		{
			"buffer":0,
			"byteLength":120,
			"byteOffset":6280,
			"target":34963
		},
		{
			"buffer":0,
			"byteLength":1152,
			"byteOffset":6400,
			"target":34962
		},
		{
			"buffer":0,
			"byteLength":1152,
			"byteOffset":7552,
			"target":34962
		},
		{
			"buffer":0,
			"byteLength":768,
			"byteOffset":8704,
			"target":34962
		},
		{
			"buffer":0,
			"byteLength":288,
			"byteOffset":9472,
			"target":34963
		},
		{
			"buffer":0,
			"byteLength":1224,
			"byteOffset":9760,
			"target":34962
		},
		{
			"buffer":0,
			"byteLength":1224,
			"byteOffset":10984,
			"target":34962
		},
		{
			"buffer":0,
			"byteLength":816,
			"byteOffset":12208,
			"target":34962
		},
		{
			"buffer":0,
			"byteLength":312,
			"byteOffset":13024,
			"target":34963
		},
		{
			"buffer":0,
			"byteLength":1224,
			"byteOffset":13336,
			"target":34962
		},
		{
			"buffer":0,
			"byteLength":1224,
			"byteOffset":14560,
			"target":34962
		},
		{
			"buffer":0,
			"byteLength":816,
			"byteOffset":15784,
			"target":34962
		},
		{
			"buffer":0,
			"byteLength":720,
			"byteOffset":16600,
			"target":34962
		},
		{
			"buffer":0,
			"byteLength":720,
			"byteOffset":17320,
			"target":34962
		},
		{
			"buffer":0,
			"byteLength":480,
			"byteOffset":18040,
			"target":34962
		},
		{
			"buffer":0,
			"byteLength":192,
			"byteOffset":18520,
			"target":34963
		}
	],
	"buffers":[
		{
			"byteLength":18712,
			"uri":"Personatge_Gordo.bin"
		}
	]
}
